<svg width="185" height="103" fill="none" xmlns="http://www.w3.org/2000/svg"><g filter="url(#filter0_d_401_1309)"><path d="M40.544 21.331a.64.64 0 01.946-.687l19.113 10.954a.64.64 0 01-.13 1.169l-9.277 2.853a.64.64 0 00-.349.264l-4.642 7.152a.64.64 0 01-1.165-.218l-4.496-21.487z" fill="#333"/></g><path fill-rule="evenodd" clip-rule="evenodd" d="M42.09 22.465l3.886 18.57 3.797-5.849a1.922 1.922 0 011.047-.79l7.865-2.42-16.594-9.51zm-.6-1.82a.64.64 0 00-.946.686l4.496 21.487a.64.64 0 001.165.218l4.642-7.152a.64.64 0 01.35-.264l9.276-2.853a.64.64 0 00.13-1.169L41.49 20.644z" fill="#fff"/><path d="M58 49a3 3 0 013-3h102.5c10.77 0 19.5 8.73 19.5 19.5S174.27 85 163.5 85H86c-15.464 0-28-12.536-28-28v-8z" fill="#F6BC28" stroke="#BA9622" stroke-width="4"/><path d="M93.65 65.918c.457.224.817.537 1.078.938.261.401.392.859.392 1.372 0 .784-.275 1.442-.826 1.974-.55.532-1.223.798-2.016.798H88.05v-9.8h3.92c.775 0 1.423.257 1.946.77.532.513.798 1.148.798 1.904 0 .877-.355 1.559-1.064 2.044zm-1.68-3.5h-2.618v2.996h2.618c.41 0 .756-.145 1.036-.434.28-.29.42-.644.42-1.064 0-.41-.145-.76-.434-1.05a1.348 1.348 0 00-1.022-.448zm-2.618 7.364h2.926a1.48 1.48 0 001.106-.462c.299-.308.448-.686.448-1.134 0-.439-.154-.812-.462-1.12a1.435 1.435 0 00-1.092-.462h-2.926v3.178zm11.516-2.072V64h1.218v7h-1.218v-1.008c-.486.793-1.242 1.19-2.268 1.19-.822 0-1.48-.257-1.974-.77-.495-.523-.742-1.227-.742-2.114V64h1.218v4.228c0 .56.154.999.462 1.316.308.317.732.476 1.274.476.625 0 1.12-.191 1.484-.574.364-.392.546-.97.546-1.736zm5.292 1.778L108.176 64h1.302l-2.856 7.434c-.308.793-.733 1.395-1.274 1.806a2.58 2.58 0 01-1.834.56v-1.134c.859.065 1.489-.41 1.89-1.428l.126-.266L102.478 64h1.302l2.38 5.488zm11.267 1.694c-1.493 0-2.721-.49-3.682-1.47-.961-.97-1.442-2.175-1.442-3.612 0-1.437.481-2.641 1.442-3.612.961-.98 2.189-1.47 3.682-1.47.887 0 1.708.215 2.464.644a4.635 4.635 0 011.764 1.736l-1.134.658a3.1 3.1 0 00-1.26-1.288 3.528 3.528 0 00-1.834-.49c-1.139 0-2.063.364-2.772 1.092-.709.719-1.064 1.629-1.064 2.73 0 1.092.355 1.997 1.064 2.716.709.728 1.633 1.092 2.772 1.092.672 0 1.283-.159 1.834-.476.56-.327.98-.756 1.26-1.288l1.134.644a4.636 4.636 0 01-1.75 1.75 4.884 4.884 0 01-2.478.644zm4.507-5.082c0-1.419.49-2.618 1.47-3.598.98-.99 2.18-1.484 3.598-1.484 1.419 0 2.618.495 3.598 1.484.99.98 1.484 2.18 1.484 3.598 0 1.41-.494 2.609-1.484 3.598-.98.99-2.179 1.484-3.598 1.484-1.418 0-2.618-.495-3.598-1.484-.98-.999-1.47-2.198-1.47-3.598zm8.848 0c0-1.083-.364-1.988-1.092-2.716-.709-.737-1.605-1.106-2.688-1.106-1.073 0-1.974.369-2.702 1.106-.718.737-1.078 1.643-1.078 2.716 0 1.064.36 1.97 1.078 2.716.728.728 1.629 1.092 2.702 1.092 1.083 0 1.979-.364 2.688-1.092.728-.747 1.092-1.652 1.092-2.716zm1.7 0c0-1.419.49-2.618 1.47-3.598.98-.99 2.179-1.484 3.598-1.484 1.418 0 2.618.495 3.598 1.484.989.98 1.484 2.18 1.484 3.598 0 1.41-.495 2.609-1.484 3.598-.98.99-2.18 1.484-3.598 1.484-1.419 0-2.618-.495-3.598-1.484-.98-.999-1.47-2.198-1.47-3.598zm8.848 0c0-1.083-.364-1.988-1.092-2.716-.71-.737-1.606-1.106-2.688-1.106-1.074 0-1.974.369-2.702 1.106-.719.737-1.078 1.643-1.078 2.716 0 1.064.359 1.97 1.078 2.716.728.728 1.628 1.092 2.702 1.092 1.082 0 1.978-.364 2.688-1.092.728-.747 1.092-1.652 1.092-2.716zm2.217-4.9h3.822c1.325 0 2.431.476 3.318 1.428.887.943 1.33 2.1 1.33 3.472 0 1.363-.443 2.525-1.33 3.486-.887.943-1.993 1.414-3.318 1.414h-3.822v-9.8zm1.302 8.568h2.52c.999 0 1.815-.35 2.45-1.05.635-.71.952-1.582.952-2.618 0-1.036-.317-1.909-.952-2.618-.635-.7-1.451-1.05-2.45-1.05h-2.52v7.336z" fill="#55440E"/><defs><filter id="filter0_d_401_1309" x=".778" y=".682" width="99.899" height="102.274" filterUnits="userSpaceOnUse" color-interpolation-filters="sRGB"><feFlood flood-opacity="0" result="BackgroundImageFix"/><feColorMatrix in="SourceAlpha" values="0 0 0 0 0 0 0 0 0 0 0 0 0 0 0 0 0 0 127 0" result="hardAlpha"/><feOffset dy="19.876"/><feGaussianBlur stdDeviation="19.876"/><feColorMatrix values="0 0 0 0 0 0 0 0 0 0 0 0 0 0 0 0 0 0 0.2 0"/><feBlend in2="BackgroundImageFix" result="effect1_dropShadow_401_1309"/><feBlend in="SourceGraphic" in2="effect1_dropShadow_401_1309" result="shape"/></filter></defs></svg>